<svg
                    width="256px"
                    height="256px"
                    viewBox="-58.88 -58.88 245.76 245.76"
                    xmlns="http://www.w3.org/2000/svg"
                    xmlns:xlink="http://www.w3.org/1999/xlink"
                    aria-hidden="true"
                    role="img"
                    class="iconify iconify--noto"
                    preserveAspectRatio="xMidYMid meet"
                    fill="#000000"
                    transform="rotate(0)matrix(1, 0, 0, 1, 0, 0)"
                    stroke="#000000"
                    stroke-width="0.00128"
                  >
                    <g
                      id="SVGRepo_bgCarrier"
                      stroke-width="0"
                      transform="translate(0,0), scale(1)"
                    >
                      <path
                        transform="translate(-58.88, -58.88), scale(7.68)"
                        d="M16,30.795566319354943C20.357766317175837,30.548255764022134,24.06846064782806,28.01710263862944,26.802918977493103,24.61504040680346C29.553109100401407,21.193405545527916,31.826096022620785,16.880410983491387,30.563979105459122,12.675866808024463C29.36272899807335,8.674090844474069,24.905721453115653,7.126569605703397,21.061736995338457,5.489194825357933C17.533840711520075,3.9864602367433406,13.85367284283779,2.766176421422611,10.22756464092224,4.01341446654431C5.9893195064980365,5.471203446314224,1.9811848876983575,8.214873476959387,0.6737043598511487,12.501873033561816C-0.7315767180753985,17.109543457451217,0.44811015649265684,22.24258369334334,3.5417122591049424,25.935152944403686C6.553515235430957,29.53008554780555,11.317705031989036,31.061294420516933,16,30.795566319354943"
                        fill="#000000"
                        strokewidth="0"
                      ></path>
                    </g>
                    <g
                      id="SVGRepo_tracerCarrier"
                      stroke-linecap="round"
                      stroke-linejoin="round"
                      stroke="#CCCCCC"
                      stroke-width="0.768"
                    ></g>
                    <g id="SVGRepo_iconCarrier">
                      <path
                        d="M94.9 71.35c-8.08-7.63-21.82-13.99-30.91-18.2c-1.54-.71-2.93-1.35-4.11-1.92c-3.43-1.65-8.12-6.22-6.1-11.47c1.36-3.55 4.81-5.34 10.27-5.34c1.75 0 3.67.2 5.72.58c7.12 1.33 12.52 3.99 15.58 5.5c.38.19.82.21 1.22.07c.39-.15.72-.45.89-.84l7.01-15.81c.31-.69.07-1.51-.57-1.93c-4.94-3.28-17.27-8.15-30.97-8.15c-1.98 0-3.95.1-5.87.3c-10.92 1.12-21.86 4.03-27.92 17.64c-3.78 8.47-3.77 18.01.01 24.89c4.04 7.51 10.66 10.87 19.04 15.11l1.08.55c6.05 3.02 13.3 6.38 18.07 8.59c7.05 3.4 9.66 9.44 8.04 13.08c-2.61 5.87-8.38 7.16-18.36 4.33c-8.81-2.39-16.94-9.14-19.21-11.15c-.34-.3-.79-.44-1.25-.38c-.45.06-.85.32-1.1.69L24.6 104.14c-.41.63-.32 1.46.22 1.98c5.63 5.43 10.22 8.59 18.17 12.5c5.35 2.63 13.18 4.21 20.95 4.21c8.12 0 27.95-1.88 36.65-19.26c5.55-11.12 3.48-22.84-5.69-32.22z"
                        fill="#fafafa"
                      ></path>
                    </g>
                  </svg>