<svg xmlns="http://www.w3.org/2000/svg" viewBox="0 0 1440 320"><path fill="#00cba9" fill-opacity="1" d="M0,128L30,138.7C60,149,120,171,180,160C240,149,300,107,360,80C420,53,480,43,540,85.3C600,128,660,224,720,245.3C780,267,840,213,900,213.3C960,213,1020,267,1080,261.3C1140,256,1200,192,1260,165.3C1320,139,1380,149,1410,154.7L1440,160L1440,320L1410,320C1380,320,1320,320,1260,320C1200,320,1140,320,1080,320C1020,320,960,320,900,320C840,320,780,320,720,320C660,320,600,320,540,320C480,320,420,320,360,320C300,320,240,320,180,320C120,320,60,320,30,320L0,320Z"></path></svg>